<svg xmlns="http://www.w3.org/2000/svg" width="400" height="149.593"><g fill-rule="evenodd"><path d="M60.37 3.68c-.112.604-.203 1.293-.203 1.532 0 .239-.075.481-.167.538-.092.057-.167.224-.167.372 0 .458-1.449 3.281-1.818 3.54-.191.135-.348.341-.348.458a.219.219 0 0 1-.209.219c-2.144.061-6.789.818-9.208 1.5a8.847 8.847 0 0 1-1 .229c-.536.064-1.318.299-1.518.455-.101.08-.401.173-.666.208-.551.073-.862.177-1.856.62-.388.174-.783.316-.877.316-.094 0-.301.072-.46.16-.159.088-.965.439-1.79.779-.825.341-1.699.756-1.942.923-.243.167-.556.304-.695.304-.138 0-.277.057-.307.125-.031.069-.506.35-1.056.625s-1.075.559-1.166.631c-.092.072-.777.522-1.524 1-2.157 1.383-3.893 2.646-3.893 2.835 0 .095-.044.129-.099.075-.054-.055-.329.101-.611.347-.283.245-.857.746-1.277 1.112-1.193 1.042-5.164 5.044-5.084 5.124.039.039-.135.266-.387.505-.583.552-.875.907-.875 1.065 0 .068-.218.352-.483.632-.266.279-.717.845-1.003 1.258-1.145 1.649-2.014 3.019-2.014 3.172a.165.165 0 0 1-.167.161c-.092 0-.167.112-.167.25 0 .137-.079.25-.176.25-.097 0-.136.067-.085.148.05.081-.02.24-.155.352-.136.112-.206.271-.155.352.05.081.019.148-.069.148-.088 0-.244.206-.347.458-.102.252-.431.92-.729 1.485a33.18 33.18 0 0 0-.93 1.916c-.213.49-.505 1.153-.649 1.474C13.489 42.559 13 43.909 13 44.198c0 .166-.066.302-.148.302-.081 0-.186.206-.233.458-.047.252-.128.609-.181.792-.265.926-.47 1.709-.545 2.083a4.53 4.53 0 0 1-.229.75c-.079.184-.182.596-.23.917-.048.321-.161.958-.252 1.417-.417 2.108-.518 2.739-.596 3.75a44.199 44.199 0 0 1-.246 2.25c-.216 1.549-.222 4.75-.009 4.75.091 0 .153-.169.137-.375-.015-.207.069-.773.188-1.259.118-.487.175-.924.126-.973-.049-.049.013-.439.137-.866.123-.428.266-1.002.317-1.277.191-1.047.294-1.509.39-1.75.054-.138.119-.43.145-.651.025-.22.125-.479.221-.575.096-.096.175-.37.175-.609 0-.24.182-.902.406-1.471.223-.57.419-1.09.436-1.157.052-.205.324-.937.478-1.287.08-.184.239-.596.352-.917.113-.321.533-1.276.933-2.123.401-.846.728-1.606.728-1.688 0-.081.112-.241.248-.354.137-.113.216-.259.176-.323-.04-.065.152-.45.426-.856.274-.407.612-.964.75-1.239.539-1.07.65-1.25.773-1.25.07 0 .127-.08.127-.178 0-.194.839-1.371 1.042-1.461.068-.031.125-.133.125-.228 0-.191 1.03-1.636 1.621-2.273.208-.225.379-.463.379-.528s.243-.381.541-.701c1.103-1.186 1.584-1.747 1.869-2.182.161-.246.36-.405.441-.355.082.051.149.031.149-.043.002-.267 2.451-2.617 3.963-3.801.234-.184.576-.502.761-.709.185-.206.435-.375.556-.375.121 0 .22-.057.22-.127s.3-.313.666-.539c.367-.227.667-.474.667-.55 0-.075.075-.09.167-.034.091.057.166.031.166-.057 0-.089.319-.348.709-.578.389-.229.888-.573 1.109-.765.22-.192.501-.35.625-.35.123 0 .224-.075.224-.166 0-.092.103-.167.23-.167.126 0 .322-.112.435-.248.113-.137.261-.214.329-.173.067.042.28-.071.474-.251.193-.181.467-.328.608-.328.142 0 .257-.075.257-.167 0-.091.113-.166.25-.166.138 0 .25-.075.25-.167 0-.092.057-.151.125-.131.069.02.838-.313 1.709-.74 1.385-.68 2.675-1.252 2.917-1.295.101-.018 1.036-.36 2.499-.914a42.042 42.042 0 0 1 1.334-.489c.091-.026.279-.093.416-.148.527-.213 2.302-.651 3.5-.863.688-.122 1.363-.265 1.5-.317.138-.053.55-.136.917-.185a296.92 296.92 0 0 0 3.601-.507c.813-.123 1.028-.021 1.939.918.545.561 1.877 2.582 1.877 2.847 0 .118.101.333.226.478.278.324.555 1.327.874 3.171.276 1.598.394 1.856.413.911.028-1.31.137-2.12.31-2.293.097-.097.177-.33.178-.518 0-.188.113-.556.25-.819.137-.263.249-.563.249-.667.001-.344 1.411-2.34 2.303-3.259l.877-.904 1.618.219c.89.121 2.181.328 2.868.46.688.133 1.475.271 1.75.307.898.119 3.562.798 4.167 1.063.183.08.858.317 1.5.526.642.21 1.257.448 1.368.53.11.081.279.099.375.04.095-.059.174-.028.174.069s.145.177.323.177c.178 0 .37.075.427.166.056.092.214.167.35.167.137 0 .939.336 1.782.746.844.411 1.601.742 1.682.736.082-.006.194.052.25.129.056.076.475.327.931.556.456.229 1.224.662 1.706.962.483.3.91.525.95.5.039-.025.247.111.46.303.214.191.782.598 1.264.903.481.305.875.617.875.693 0 .076.107.139.238.139s.337.093.458.208c.121.115.503.42.849.678.346.258.811.652 1.034.875.223.223.455.405.515.405.178 0 .836.618 3.478 3.272 2.29 2.299 2.936 3.003 3.738 4.069.15.2.404.485.565.632.16.147.291.33.291.405 0 .075.074.227.164.338.629.77 1.058 1.386 1.889 2.708.521.83.947 1.587.947 1.683 0 .096.136.298.301.447.166.15.405.537.531.859.127.323.292.587.366.587.075 0 .136.082.136.181 0 .257 1.05 2.378 1.25 2.525.091.067.101.124.021.125-.08.002-.069.096.025.211.162.198 1.286 2.998 1.237 3.081-.013.022.119.371.293.777.173.405.271.781.217.835-.055.054-.011.099.096.099.106 0 .176.056.153.125-.047.143.334 1.455.571 1.968.088.189.187.526.222.75.034.224.216 1.044.405 1.823.189.779.386 1.754.439 2.167.052.413.195 1.275.316 1.917.121.641.179 1.234.129 1.317-.051.083-.001.094.111.025.377-.233.016-6.178-.577-9.509-.13-.733-.278-1.587-.329-1.898-.051-.31-.177-.723-.281-.917-.103-.193-.173-.371-.154-.394.09-.114-.207-1.727-.333-1.805-.08-.049-.145-.31-.145-.579 0-.27-.062-.49-.139-.49-.076 0-.138-.111-.138-.247 0-.336-.415-1.633-.585-1.828-.076-.087-.138-.316-.138-.509 0-.192-.09-.44-.2-.55-.11-.11-.139-.2-.064-.2.075 0 .009-.193-.145-.429-.155-.236-.306-.554-.335-.708-.134-.691-2.526-5.617-2.964-6.102-.16-.178-.292-.392-.292-.475 0-.083-.155-.369-.344-.635-.19-.266-.3-.484-.244-.484.056 0-.052-.164-.239-.365-.186-.2-.339-.463-.339-.583 0-.12-.077-.219-.171-.219-.094 0-.241-.184-.327-.41a2.77 2.77 0 0 0-.419-.708c-.443-.5-1.583-2.033-1.583-2.127 0-.048-.132-.223-.292-.388-.16-.165-.667-.74-1.125-1.278-1.473-1.728-1.98-2.279-2.976-3.235a41.476 41.476 0 0 1-1.25-1.238c-.151-.165-.678-.606-1.171-.98s-1.026-.801-1.183-.949c-.157-.149-.681-.57-1.163-.937-.483-.366-.976-.76-1.097-.875-.121-.114-.294-.208-.384-.208-.091 0-.19-.058-.22-.128C89.248 19.238 87.42 18 87.28 18c-.044 0-.517-.294-1.051-.653-.534-.359-1.021-.623-1.081-.585-.061.037-.202-.043-.315-.179-.112-.135-.271-.205-.352-.155-.081.051-.148.021-.148-.065 0-.086-.243-.253-.541-.372a6.07 6.07 0 0 1-.984-.52c-.244-.167-.562-.304-.709-.304-.146 0-.266-.088-.266-.195 0-.107-.047-.147-.104-.09-.058.058-.414-.067-.792-.278-.674-.375-1.565-.685-1.812-.631-.069.015-.125-.048-.125-.14 0-.091-.146-.166-.323-.166-.178 0-.37-.075-.427-.167-.057-.092-.271-.167-.477-.167-.205 0-.444-.062-.531-.137-.087-.076-.496-.24-.909-.364-.412-.124-.825-.277-.916-.34-.172-.118-.855-.296-1.584-.413a12.166 12.166 0 0 1-1.083-.255c-1.813-.51-5.859-1.215-8.083-1.41-1.229-.107-1.259-.121-1.76-.803-.693-.944-1.838-3.331-1.761-3.67.018-.079-.056-.249-.163-.378-.108-.13-.244-.853-.303-1.608l-.107-1.372-.203 1.097m-.989 27.157c-.569.365-1.113.663-1.208.663-.095 0-.173.066-.173.146 0 .081-.225.24-.5.354-.275.114-.5.26-.5.325s-.187.219-.417.342l-.416.223v10.055c0 5.53.038 10.055.084 10.055.047 0 .376-.206.731-.458s.815-.571 1.022-.709c.206-.137.582-.418.835-.625.252-.206.544-.375.649-.375.104 0 .232-.112.285-.249.052-.137.155-.212.227-.167.072.044.176-.034.23-.175.104-.272.499-.148.965.303.122.117.871.639 1.664 1.158.794.52 1.493 1.026 1.554 1.124.364.589.42-.748.42-9.992v-9.979l-.484-.345c-.266-.189-.566-.344-.666-.344-.101 0-.183-.075-.183-.167 0-.092-.113-.167-.25-.167-.138 0-.25-.075-.25-.166 0-.092-.098-.167-.217-.167s-.678-.3-1.243-.667c-1.221-.793-.913-.794-2.159.004M47.167 38.25c-.114.137-.27.25-.346.25-.076 0-.611.327-1.188.728-.577.4-1.321.853-1.652 1.008-.332.154-.744.408-.917.564-.358.323-2.309 1.533-2.471 1.533-.109 0-.15.03-.972.705l-.462.379.045 9.821c.043 9.195.064 9.804.326 9.542.154-.154.36-.28.458-.28.098 0 .179-.059.179-.13 0-.072.206-.223.458-.335.487-.218 1.13-.577 1.542-.862 1.021-.706 2.86-1.84 2.986-1.84.084 0 .178-.056.208-.125.08-.179 1.433-1.041 1.635-1.041.094 0 .171-.067.171-.148 0-.081.15-.186.333-.234.329-.086.333-.227.333-9.936 0-10.281-.007-10.393-.666-9.599m26.003 9.542.003 9.791 1.08.632c.594.347 1.08.704 1.08.792 0 .088.088.16.194.16.107 0 .572.243 1.035.541 1.012.652 1.353.856 2.063 1.233.298.158.542.35.542.427 0 .129.639.444.833.411.081-.013.648.426 1.09.846.753.715.743.84.743-9.605v-9.813l-.5-.207c-.275-.114-.5-.266-.5-.339 0-.072-.323-.288-.717-.479-.395-.191-.864-.481-1.042-.645-.178-.164-.602-.429-.942-.589-.34-.159-.666-.368-.724-.463-.059-.095-.269-.243-.466-.329-.197-.086-.809-.452-1.359-.814C74.521 38.643 73.406 38 73.257 38c-.05 0-.089 4.406-.087 9.792m78.913-2.377c-1.739.268-3.953.795-5.083 1.212a1.097 1.097 0 0 1-.458.059c-.115-.019-.209.044-.209.14 0 .096-.113.174-.251.174-.45 0-3.28 1.864-4.152 2.735-.919.918-2.097 2.317-2.097 2.49 0 .059-.216.576-.48 1.15-1.225 2.659-1.378 7.271-.307 9.198.105.189.175.4.156.47-.11.387 2.207 3.215 3.105 3.79.215.138.553.391.75.562.43.373 3.039 1.637 3.86 1.869.091.026.56.202 1.041.391.482.189.875.304.875.255 0-.049.168.002.374.111.205.11.524.224.708.254.782.126 1.356.259 1.668.387.184.075.784.233 1.334.351.55.117 1.075.234 1.166.26a35.34 35.34 0 0 0 2.172.559c.369.079 1.001.258 1.405.397.404.139.79.218.859.176.069-.042.172-.001.229.092.058.093.252.17.431.17.518 0 2.852 1.27 3.437 1.87.911.935 1.221 1.296 1.114 1.296-.057 0-.001.124.125.276.353.426.329 2.489-.04 3.351-.687 1.603-2.701 2.965-4.982 3.37-.596.105-1.428.266-1.849.357-.918.197-3.602.186-4.651-.019a64.872 64.872 0 0 0-1.916-.331c-.642-.101-1.242-.207-1.334-.235a28.902 28.902 0 0 1-.416-.133c-.138-.045-.775-.247-1.417-.451-1.561-.494-3.233-1.18-3.776-1.55-.243-.166-.513-.301-.6-.301-.086 0-.469-.226-.849-.501-.38-.276-.692-.452-.692-.392 0 .061-.131-.038-.291-.218-.541-.609-.823-.589-1.119.08-.15.338-.344.726-.431.864-.178.28-.503.995-.567 1.25-.059.231-.736 1.765-.948 2.147-.096.173-.271.59-.391.927l-.216.614.886.642a18.01 18.01 0 0 0 1.69 1.073c.442.237.841.475.887.529.046.054.459.232.917.395s1.058.395 1.333.514c.275.119.725.27 1 .336.275.065.575.173.667.24.326.237 4.118 1.085 5.167 1.155.183.013.97.076 1.75.142 1.145.097 3.862.05 7.666-.131.23-.011.717-.103 1.084-.205.366-.102.741-.193.833-.203.417-.045 1.372-.294 1.75-.457.229-.099.567-.234.75-.302.772-.283 2.676-1.243 2.789-1.406.067-.097.124-.114.125-.038.006.317 3.503-2.884 3.503-3.206 0-.066.131-.265.291-.443.353-.391 1.042-1.82 1.042-2.161 0-.135.088-.245.194-.245.107 0 .15-.046.094-.101-.055-.055-.025-.299.068-.541.44-1.159.516-5.791.105-6.453-.061-.098-.145-.361-.187-.584-.283-1.495-2.525-4.461-3.912-5.175-.245-.126-.484-.281-.532-.344-.174-.23-3.102-1.61-3.83-1.805-.413-.11-.9-.26-1.083-.332-.855-.337-1.377-.498-1.894-.584a6.076 6.076 0 0 1-1.128-.33c-.312-.13-.585-.233-.606-.229-.159.034-1.496-.252-2.039-.435-.654-.221-2.212-.506-2.458-.449-.069.015-.125-.047-.125-.138 0-.092-.172-.167-.381-.167-.338 0-1.497-.354-3.286-1.002-.321-.117-.696-.305-.833-.419a2.181 2.181 0 0 0-.624-.32c-1.854-.565-3.206-4.218-2.154-5.823.157-.24.243-.436.191-.436-.053 0 .077-.184.287-.409.211-.224.466-.506.567-.625 1.494-1.752 7.355-2.892 10.983-2.137.366.076 1.079.222 1.583.323l1.25.251c.183.037.532.144.775.238.242.094.486.126.541.071.055-.056.101-.013.101.094 0 .106.135.194.3.194.165 0 .39.09.5.2.11.11.2.152.2.092 0-.059.523.151 1.162.467.639.316 1.239.574 1.333.574.094 0 .171.057.171.126 0 .487 1.158.463 1.35-.028.349-.895 1.346-3.328 1.574-3.841.121-.271.183-.552.138-.625-.045-.072-.014-.132.067-.132.198 0 .563-1.21.409-1.352-.17-.157-3.77-2.025-3.871-2.009-.046.007-.585-.14-1.199-.327a25.322 25.322 0 0 0-1.333-.378c-.12-.021-.931-.195-1.801-.385-3.363-.735-7.186-.912-10.084-.467M176 67.667V89.5h8.167l.001-5.542.001-5.541 1.416-1.382c.778-.76 1.415-1.405 1.415-1.435 0-.029.887-.964 1.97-2.076 1.77-1.818 2.363-2.293 2.363-1.893 0 .073.432.629.959 1.237.527.608 1.22 1.422 1.541 1.809.321.387.756.88.966 1.097.211.216.345.393.299.393-.045 0 .082.175.285.388.883.935 1.45 1.59 1.45 1.674 0 .05.306.394.68.765.374.37.618.673.542.673-.076 0 .068.177.32.394.252.217.458.466.458.553 0 .088.169.313.375.5.207.187.675.7 1.042 1.139.367.439.817.97 1 1.18.183.211.521.629.75.929.229.301.604.749.833.997.514.554.849.947 1.896 2.224.451.55.936 1.094 1.077 1.209.142.114.192.208.111.208s-.002.11.176.245c.364.275 9.986.386 9.879.114-.058-.148-1.346-1.696-1.847-2.221-.16-.167-.254-.305-.207-.305.046 0-.096-.206-.317-.458s-.897-1.058-1.502-1.792a105.536 105.536 0 0 1-2.137-2.647 330.458 330.458 0 0 0-3.593-4.422 20.514 20.514 0 0 1-.986-1.271 11.772 11.772 0 0 0-.833-1.046 23.96 23.96 0 0 1-.883-1.039 18.168 18.168 0 0 0-.709-.842c-.16-.174-.291-.366-.291-.427s-.112-.23-.248-.375c-.469-.5-4.586-5.532-4.586-5.605 0-.078-.575-.783-1.016-1.246-.247-.259-.122-.431 1.666-2.297A408.863 408.863 0 0 0 202 59.648a540.544 540.544 0 0 1 4.833-5.152c1.767-1.851 2.717-2.874 3.292-3.543.298-.347.542-.585.542-.529 0 .056.206-.148.457-.453.252-.305 1.133-1.253 1.958-2.108 2.131-2.205 2.383-2.03-2.919-2.03h-4.527l-2.276 2.346c-1.252 1.29-2.989 3.089-3.86 3.998-.871.909-2.352 2.445-3.292 3.413-.939.968-1.708 1.836-1.708 1.928 0 .093-.064.129-.142.081-.077-.048-.231.08-.341.286-.11.205-.422.521-.693.702-.271.181-.535.461-.586.621-.052.161-.214.292-.36.292-.147 0-.226.041-.176.091.051.051-.593.794-1.43 1.653a2165.4 2165.4 0 0 0-4.064 4.184l-2.541 2.622V45.833H176v21.834m42-21.737c0 .054.262.545.583 1.093.321.547.584 1.023.584 1.057 0 .034.375.628.833 1.321.458.692.833 1.328.833 1.415 0 .086.057.181.125.212.144.064.615.846.912 1.514.112.252.262.458.333.458.072 0 .13.106.13.236s.058.261.128.292c.071.03.458.618.862 1.305.403.688.801 1.296.886 1.352.084.056.157.169.161.25.015.273.349.898.479.898.071 0 .18.169.242.375.063.207.293.614.512.906.218.292.397.574.397.627 0 .053.43.789.956 1.636.525.847.938 1.596.916 1.665-.021.068.031.125.117.125.086 0 .251.262.367.583.116.321.264.583.328.583.065 0 .36.432.656.959.296.527.59.995.653 1.041.148.108.401.713.367.875-.015.069.048.125.14.125.092 0 .167.113.167.25 0 .138.066.25.146.25.081 0 .24.225.354.5.114.275.264.5.334.5s.172.132.226.292c.055.16.367.742.693 1.292.326.55.636 1.131.689 1.291.053.161.163.292.244.292.081 0 .147.112.147.25 0 .137.066.25.148.25.081 0 .266.244.411.542.145.298.416.766.601 1.041.327.484.338.746.339 8.209L235 89.5h8.333v-7.766c0-7.34.018-7.79.314-8.208.173-.244.519-.818.769-1.276.25-.458.564-.92.697-1.026.133-.107.24-.237.236-.29-.016-.23.255-.745.849-1.621.349-.515.635-.987.635-1.048 0-.102.637-1.068.834-1.265.046-.046.201-.309.345-.583.39-.744.727-1.323.825-1.417.047-.046.179-.271.293-.5.114-.229.355-.642.536-.917.182-.275.387-.612.457-.75.07-.137.464-.775.877-1.416.412-.642.752-1.205.754-1.25.002-.046.284-.516.625-1.045.342-.529.621-1.026.621-1.105 0-.078.111-.235.247-.347.135-.113.35-.403.478-.646.656-1.246 1.154-2.116 1.254-2.191.062-.045.298-.439.525-.875.227-.435.473-.791.547-.791.075 0 .089-.075.032-.167-.056-.092-.021-.167.078-.167s.254-.193.344-.429c.09-.236.388-.756.662-1.155.275-.399.5-.774.5-.832 0-.059.225-.434.5-.834.275-.399.5-.768.5-.818 0-.051.251-.487.559-.97.308-.483.685-1.122.838-1.42l.278-.542-4.046.001h-4.046l-.5.791c-.275.436-.481.848-.458.917.023.068-.032.125-.121.125-.09 0-.316.318-.503.708-.33.687-.609 1.17-.885 1.533-.174.228-1.221 1.981-2.221 3.717-.435.756-.852 1.375-.927 1.375-.074 0-.135.083-.135.184 0 .101-.225.518-.5.925-.275.408-.5.801-.5.873 0 .073-.183.346-.407.606-.223.26-.393.516-.378.567.016.052-.289.56-.676 1.128-.388.567-.706 1.095-.706 1.172 0 .167-.996 1.778-1.486 2.405-.191.243-.347.508-.347.587 0 .209-1.517 2.626-1.689 2.692-.079.03-.144.157-.144.282 0 .758-.609.071-1.715-1.938-.121-.22-.478-.806-.794-1.302-.316-.496-.575-.946-.575-1 0-.054-.158-.323-.35-.598-.57-.815-2.066-3.413-2.066-3.588 0-.089-.063-.162-.139-.162-.076 0-.242-.206-.37-.458-.127-.252-.44-.772-.695-1.155-.254-.383-.463-.777-.463-.875 0-.098-.075-.178-.167-.178a.172.172 0 0 1-.166-.175c0-.096-.263-.585-.584-1.087-.321-.501-.583-.953-.583-1.003 0-.051-.225-.419-.5-.819-.275-.399-.5-.763-.5-.808 0-.045-.374-.669-.83-1.387-.457-.718-1.025-1.698-1.262-2.18-.238-.481-.506-.875-.597-.875-.09 0-.118-.075-.061-.166.057-.092.032-.167-.054-.167s-.196-.15-.244-.333c-.085-.326-8.952-.56-8.952-.237m45.333 21.737V89.5h31v-7H271.5V45.833h-8.167v21.834m35.667 0V89.5h8.164l.043-21.833.043-21.834H299v21.834m15.5 0V89.5h8.165l.042-14.587.043-14.587 1.083 1.323c.596.728 1.234 1.53 1.417 1.783.183.253.451.578.595.722.145.145.419.488.61.763.19.275.652.829 1.025 1.232.374.402.723.871.778 1.041.054.171.163.31.244.31.08 0 .568.544 1.084 1.208a111.846 111.846 0 0 0 2.081 2.618c.137.167.451.555.697.863.246.309.846 1.039 1.334 1.623.487.583.96 1.176 1.052 1.316.176.269.87 1.082 1.612 1.888.245.266.405.484.355.484-.049 0 .144.239.43.532.286.292.52.634.52.759 0 .126.075.182.166.126.092-.057.167-.033.167.052 0 .086.262.442.583.793.321.35.584.739.584.864s.075.181.166.124c.092-.057.167-.02.167.081s.254.462.565.801c.944 1.033 1.471 1.701 1.341 1.701-.069 0 .064.169.295.375.554.496 2.466 2.935 2.466 3.146 0 .091.075.119.166.063.092-.057.167.007.167.143 0 .135.056.271.125.301.069.031.461.468.873.972.411.504.823.972.916 1.039.093.068 1.688.124 3.544.125l3.375.003V45.833h-8.166v14.514c0 8.874-.061 14.493-.155 14.459-.156-.056-1.454-1.532-2.123-2.414a22.66 22.66 0 0 0-.718-.892l-.698-.812a33.525 33.525 0 0 1-.928-1.167 60.215 60.215 0 0 0-2.128-2.585 82.173 82.173 0 0 1-1.619-2.019c-.365-.492-2.41-2.961-3.086-3.725-.296-.335-.539-.657-.541-.716-.003-.059-.211-.34-.463-.623a23.57 23.57 0 0 1-.791-.943 32.983 32.983 0 0 0-.667-.817 28.023 28.023 0 0 1-.74-.926 17.97 17.97 0 0 0-.834-1.001c-.894-.982-1.762-2.028-1.822-2.198-.034-.097-.184-.304-.333-.46-.149-.156-.684-.801-1.188-1.432-.504-.631-1.117-1.356-1.362-1.612-.245-.255-.411-.464-.368-.464.092 0-.058-.186-.934-1.159-.368-.409-.669-.793-.669-.855 0-.062-.3-.422-.666-.799-.367-.378-.63-.687-.585-.687.044 0-.047-.15-.204-.333-.268-.313-.492-.334-3.665-.334h-3.38v21.834m45.944-21.723c-.061.062-.111 9.887-.111 21.834V89.5h32.834v-6.833h-24.5V70.833h10.319c5.676 0 10.439-.045 10.584-.101.228-.087.263-.545.263-3.399 0-2.853-.035-3.311-.263-3.399-.145-.055-4.908-.101-10.584-.101h-10.319v-11h23.666v-7h-15.889c-8.738 0-15.938.05-16 .111M60.139 57.458c-.031.069-.333.267-.673.439-.339.173-.771.457-.958.632-.188.174-.341.282-.341.239 0-.043-.383.179-.85.493-.468.315-.918.572-1 .572-.088 0-.15 6.602-.15 15.915v15.914l-.664.419c-.365.231-.705.419-.757.419-.051 0-.254.15-.451.333a3.604 3.604 0 0 1-.826.541c-.258.114-.469.252-.469.306 0 .054-.421.317-.936.584-.515.267-.973.579-1.018.693-.044.114-.138.172-.208.129-.07-.043-.261.07-.425.251-.164.181-.367.33-.45.33-.084 0-.466.212-.85.472-1.424.964-1.28 2.71-1.28-15.475V64.505l-.583.279c-.321.153-.583.339-.583.414 0 .074-.078.135-.173.135-.095 0-1.261.713-2.59 1.584-1.33.87-2.459 1.583-2.51 1.583-.05 0-.572.316-1.16.702l-1.067.702v39.573l.484.345c.266.19.554.345.641.345.086 0 .276.131.422.291.146.161.551.442.901.625.349.184.768.453.929.599.162.145.5.37.75.499.251.13.494.277.539.327.168.185 1.843 1.159 1.995 1.159.085 0 .215.097.289.217.073.12.411.346.75.504.339.158.827.46 1.083.671.257.211.583.427.726.478.142.052.817.458 1.5.903 1.383.902 1.684 1.085 2.407 1.464.275.144.723.454.996.689.273.235 1.042.737 1.709 1.117.666.379 1.212.75 1.212.823 0 .074.112.134.25.134.137 0 .25.079.25.176 0 .097.067.136.148.085.081-.05.24.021.354.157.113.137.274.248.359.248.084 0 .301.138.482.307.181.169.534.41.785.536.554.28 3.089 1.856 3.205 1.993.046.054.355.224.686.378.331.154.696.394.812.533.115.139.279.253.363.253.084 0 .314.15.511.334.197.183.456.333.576.333.121 0 .219.075.219.167 0 .091.112.166.25.166.137 0 .25.057.25.126 0 .07.215.222.478.338.263.116 1.308.753 2.323 1.416 1.014.662 2.074 1.331 2.355 1.488.541.3.678.632.261.632-.138 0-.25.075-.25.167 0 .092-.099.167-.219.167s-.383.153-.583.339c-.201.187-.366.281-.368.209-.001-.072-.057-.052-.125.045-.067.097-.591.459-1.164.804-.573.345-1.154.74-1.292.877-.137.137-.249.195-.249.128 0-.066-.132-.007-.292.132-.16.139-.667.467-1.125.729-.458.263-.979.611-1.156.774-.178.163-.392.296-.476.296-.084 0-.887.487-1.785 1.083-1.889 1.254-1.802 1.236-2.75.584-.399-.275-.819-.5-.932-.5-.114 0-.161-.046-.105-.101.055-.056-.326-.329-.848-.606-.521-.278-1.154-.677-1.405-.887-.252-.211-.608-.431-.792-.489-.184-.059-.334-.176-.334-.262 0-.085-.094-.156-.209-.157-.114-.001-.899-.451-1.743-1-.844-.549-1.607-.998-1.694-.998-.088 0-.185-.061-.215-.135-.062-.15-1.56-1.199-1.713-1.199-.053 0-.471-.263-.928-.584-.457-.322-.833-.528-.834-.459-.002.07-.058.051-.125-.042-.175-.24-1.499-1.081-1.702-1.081-.094 0-.171-.058-.171-.129 0-.071-.279-.277-.62-.458-.856-.455-2.618-1.624-2.685-1.783a.227.227 0 0 0-.191-.13c-.074 0-.799-.417-1.611-.927l-1.476-.927-.047 4.885c-.047 4.932-.008 5.635.314 5.635.097 0 .572.263 1.055.584.484.321.959.583 1.056.583.098 0 .203.066.233.146.031.081.543.454 1.139.83.596.376 1.164.751 1.263.834.099.082.342.201.541.264.2.063.363.185.363.271 0 .085.078.155.174.155.096 0 .733.377 1.417.839.684.461 1.374.889 1.534.95.16.061.437.246.614.411.178.165.422.3.542.3.12 0 .219.075.219.167 0 .091.093.167.208.167.115.001.433.189.708.419.275.23.725.532 1 .67.791.399 1.287.702 1.398.854.107.147.454.354 1.52.91.354.184.732.442.841.574.11.131.269.239.354.239.198 0 2.202 1.347 2.276 1.53.031.075.145.137.254.137.109 0 .646.298 1.194.662 1.142.758 1.137.757 1.478.415.141-.14.666-.471 1.167-.734.5-.264.866-.524.812-.578-.055-.054.063-.099.262-.099.198 0 .361-.075.361-.166 0-.092.112-.167.25-.167.137 0 .25-.066.25-.148 0-.081.252-.267.56-.413.309-.147.655-.38.771-.519.115-.139.308-.253.428-.253.119 0 .318-.094.44-.209.123-.114.485-.351.804-.526.319-.174.716-.457.882-.628.166-.171.372-.268.458-.215.086.054.157.027.157-.059s.225-.249.5-.363c.275-.114.5-.266.5-.338 0-.071.206-.211.458-.31.401-.158 1.742-1.034 2.327-1.519.11-.091.24-.167.289-.167.134 0 1.743-.999 2.663-1.654.451-.322.912-.598 1.025-.615.212-.031.967-.532 1.794-1.19.26-.207.541-.334.625-.282.084.052.152.02.152-.071s.674-.565 1.498-1.052l1.498-.886.002-4.041c.001-2.234-.064-4.042-.145-4.042-.081 0-.533-.244-1.003-.542-2.803-1.774-3.621-2.302-3.801-2.454-.111-.094-.279-.171-.375-.171a.17.17 0 0 1-.174-.166c0-.092-.1-.167-.222-.167s-.65-.299-1.172-.665c-.522-.366-1.19-.789-1.486-.94-.295-.151-.574-.325-.62-.385-.046-.061-.383-.286-.75-.5-1.012-.592-1.963-1.227-2.323-1.552-.177-.16-.415-.291-.528-.291-.113 0-.811-.418-1.552-.928s-1.347-.887-1.347-.837c0 .05-.964-.545-2.143-1.322-1.179-.777-2.229-1.413-2.333-1.413-.105 0-.19-.059-.19-.132 0-.132-1.703-1.219-2.959-1.888-.206-.11-.375-.263-.375-.34 0-.077-.08-.14-.178-.14-.098 0-.492-.215-.875-.478a14.856 14.856 0 0 0-1.388-.827c-.38-.193-.801-.462-.937-.597-.251-.251-3.231-2.098-3.384-2.098-.047 0-.246-.15-.443-.334a3.558 3.558 0 0 0-.826-.54c-.614-.272-.6-.311.281-.793.413-.225.75-.468.75-.538 0-.071.113-.129.25-.129.138 0 .25-.087.25-.194 0-.107.049-.146.109-.086s.191.006.292-.12c.166-.208.505-.414 2.256-1.37.316-.172.724-.444.907-.605.183-.16.39-.291.459-.291.07 0 .328-.186.573-.414.245-.227.512-.373.592-.323.08.049.146.01.146-.087 0-.097.112-.176.25-.176.137 0 .25-.064.25-.142 0-.077.3-.276.666-.442.367-.165.667-.355.667-.422s.131-.164.292-.215c.16-.05.493-.224.741-.385.487-.319.971-.183 1.701.475.174.157.38.246.458.198.078-.048.141-.006.141.094 0 .099.169.244.375.323.207.078.825.439 1.375.8.55.362 1.132.706 1.292.765.16.059.292.184.292.279 0 .094.143.172.319.172.176 0 .345.062.375.137.077.19 2.413 1.696 2.63 1.696.097 0 .176.066.176.146 0 .081.225.24.5.354.275.114.5.273.5.354 0 .08.112.146.25.146.137 0 .25.066.25.147 0 .081.131.189.291.24.354.112 1.198.619 1.507.905.124.114.298.208.387.208.089 0 .253.078.363.174.328.283 3.093 2.021 3.193 2.006.051-.007.242.137.425.32.184.183.44.333.57.333.13 0 .261.06.291.132.077.181 1.618 1.202 1.814 1.202.087 0 .159.066.159.147 0 .081.131.191.291.245.284.095.874.439 1.042.608.046.045.252.177.458.293l.375.209V69.89l-.416-.223c-.229-.123-.417-.286-.417-.362 0-.076-.083-.138-.184-.138-.101 0-.518-.225-.925-.5-.408-.275-.806-.5-.885-.5a.233.233 0 0 1-.2-.132c-.031-.072-.407-.334-.836-.583-.429-.249-.898-.57-1.042-.714-.144-.144-.261-.221-.261-.17 0 .082-1.839-1.031-2.25-1.362-.423-.34-1.003-.706-1.121-.706-.071 0-.129 7.275-.129 16.167 0 8.891-.037 16.166-.081 16.166-.125 0-1.748-1.008-2.606-1.618-.423-.302-.855-.548-.958-.548-.104 0-.189-.08-.189-.177 0-.097-.075-.13-.166-.073-.092.056-.167.023-.167-.074s-.113-.176-.25-.176c-.138 0-.25-.075-.25-.167 0-.092-.083-.167-.184-.167-.102 0-.458-.216-.792-.481-.334-.264-.682-.502-.774-.528-.092-.027-.56-.3-1.042-.608l-.875-.56V59.984l-.499-.283c-.274-.157-.499-.341-.5-.409 0-.069-.113-.125-.251-.125-.137 0-.25-.075-.25-.167a.165.165 0 0 0-.163-.167c-.09 0-.574-.262-1.075-.583-.502-.321-.991-.583-1.087-.583a.172.172 0 0 1-.175-.167c0-.192-.611-.229-.694-.042M30.418 75.385c-.183.109-.746.468-1.25.798-.78.51-1.513.973-3.006 1.9a120.643 120.643 0 0 0-2.892 1.837l-1.02.67-.042 16.192-.043 16.192-.496-.248c-.273-.136-.542-.322-.599-.414-.056-.091-.264-.229-.461-.307-.198-.077-1.109-.635-2.026-1.238l-1.666-1.098-8.084.002c-9.104.003-8.571-.095-6.353 1.176.493.282.981.581 1.083.664.103.083.679.47 1.28.861 1.182.769 1.18.768 2.907 1.825.642.393 1.192.772 1.222.842.031.07.135.128.232.128s.802.412 1.568.916c.765.504 1.472.917 1.57.917.098 0 .131.075.075.167-.057.091-.017.166.089.166s.4.148.654.329c.253.18.493.296.532.257.04-.04.331.15.648.421s.661.493.765.493c.103 0 .287.121.409.268.122.147.375.334.562.416.188.082.817.449 1.399.816.582.367 1.092.667 1.132.667.04 0 .23.146.422.325.192.178.751.528 1.243.777.492.249.895.515.895.592 0 .077.101.139.224.139s.36.15.526.334c.166.183.37.333.454.333.084 0 .503.242.932.537.429.295.801.517.826.494.025-.023.295.148.599.38s.606.422.669.422c.121 0 1.124.674 1.27.853.045.056.383.265.75.464.97.526 2.364 1.417 2.718 1.738.17.153.396.279.503.279.148 0 .195-6.421.195-26.75 0-14.713-.018-26.746-.041-26.741-.023.006-.192.1-.374.209m59.749 26.604c0 14.673.038 26.678.085 26.678.097 0 .723-.348.99-.549.096-.073.7-.462 1.341-.865.642-.402 1.253-.807 1.358-.899.104-.092.224-.134.264-.093.041.041.211-.076.377-.26.167-.184.367-.334.446-.334.078 0 .501-.244.94-.542 1.253-.85 1.416-.95 1.962-1.202.282-.13.61-.354.729-.497.118-.143.3-.262.403-.266.103-.004.448-.229.765-.5s.646-.493.731-.493c.085 0 .667-.338 1.293-.75.626-.413 1.216-.75 1.31-.75a.17.17 0 0 0 .172-.167c0-.092.101-.167.225-.167.123 0 .359-.15.525-.333.166-.183.367-.333.447-.333.079 0 .711-.375 1.403-.834.692-.458 1.291-.833 1.331-.833.04 0 .383-.225.762-.5.38-.275.792-.5.916-.5.123 0 .225-.075.225-.167 0-.091.112-.166.25-.166.137 0 .25-.064.25-.141 0-.077.281-.283.625-.458.343-.175.662-.361.708-.414.046-.052.402-.272.792-.489.389-.216.708-.445.708-.509 0-.063.225-.209.5-.323.275-.114.5-.26.5-.325 0-.066.094-.122.208-.127.115-.004.959-.499 1.875-1.1.917-.602 2.117-1.379 2.667-1.729.55-.349 1.075-.694 1.167-.766.091-.072.316-.238.5-.37.291-.209-.686-.239-7.753-.244l-8.087-.005-.663.445c-.365.245-.702.494-.747.552-.046.058-.609.395-1.25.748-.642.354-1.205.69-1.25.748-.046.058-.365.268-.709.467l-.625.362V80.706l-.572-.436c-.315-.24-.618-.437-.673-.437-.056 0-.305-.142-.553-.316-.776-.544-2.758-1.792-3.368-2.121-.321-.173-1.071-.661-1.667-1.085-.596-.423-1.252-.822-1.458-.885l-.375-.115v26.678M316 99.023c-1.238.755-1.554 1.595-1.104 2.935.07.207.182.375.25.375.069 0 .287.152.485.337.558.519 2.418.477 2.953-.067 1.752-1.782-.475-4.865-2.584-3.58M202.167 111.75v12.417h3.319l.05-1.292c.044-1.136.074-1.241.246-.875.108.229.202.368.207.308.006-.06.244.109.529.375.284.266.583.484.664.484.081 0 .292.123.469.275 1.344 1.15 5.522 1.308 7.556.285.435-.219.81-.381.834-.359.07.064 1.504-.973 2.057-1.488.754-.701 1.849-2.474 1.984-3.213.009-.046.121-.384.251-.75.259-.735.336-3.786.119-4.75-.963-4.287-4.386-7-8.829-7-2.084 0-4.372.875-5.522 2.113l-.592.637-.004-4.792-.005-4.792h-3.333v12.417m-64.717-10.978c-.058.058-.027.25.068.427.094.178.2.449.233.603.034.155.367 1.181.74 2.281s.703 2.151.733 2.335c.03.184.155.522.277.75.122.229.219.453.215.499a.883.883 0 0 0 .046.25c.312.992.602 1.82.904 2.583.199.504.359.954.355 1-.017.213.216.963.432 1.392.132.262.262.637.288.834.027.196.096.47.154.607.261.616 1.457 4.3 1.543 4.75.052.275.144.538.203.584.06.045.136.195.168.333.033.138.079.325.104.417.024.091.101.41.17.708s.191.542.271.542c.08 0 .146.132.146.294 0 .161.15.704.333 1.206.184.501.334.931.334.956 0 .204 3.656.007 3.833-.206.114-.138.165-.25.112-.25-.052 0 .015-.263.149-.584.134-.32.193-.583.132-.583s.024-.15.19-.333c.166-.184.256-.334.2-.334-.057 0 .161-.731.485-1.625.323-.893.615-1.752.648-1.907.034-.156.324-1.018.646-1.917.321-.899.636-1.859.701-2.134.107-.457.731-2.193 1.078-3 .079-.183.293-.821.475-1.417.182-.596.561-1.72.841-2.498.28-.779.513-1.454.516-1.5.013-.161.495 1.039.56 1.393.036.196.23.805.432 1.355.201.55.446 1.3.545 1.667.098.367.222.704.276.75.053.046.124.196.157.333l.098.417c.171.713.327 1.179.421 1.25.06.046.231.496.38 1 .315 1.071 1.063 3.269 1.277 3.75.116.262.715 2.022 1.078 3.167.029.091.099.279.156.416.057.138.284.813.503 1.5l.399 1.25 1.912.047c1.513.037 1.911 0 1.911-.178 0-.194.329-1.275.72-2.369.359-1.002.702-2.02.729-2.166.03-.164.338-1.005.61-1.667.075-.183.193-.558.261-.833.143-.574.146-.582.284-.917.181-.437 1.005-3.082.974-3.127-.016-.024.087-.267.228-.541.142-.274.217-.499.166-.499-.05 0 .032-.187.182-.416.15-.229.231-.417.179-.417-.052 0 .016-.262.149-.583.134-.32.253-.639.263-.708.037-.24.614-2.01.938-2.876.135-.359.137-.367.277-.916.071-.275.278-.913.461-1.417.182-.504.357-1.029.388-1.167.03-.137.248-.774.484-1.416a26.29 26.29 0 0 0 .429-1.214c0-.026-.757-.027-1.682 0l-1.682.047-.489 1.5c-.269.825-.557 1.65-.641 1.833a9.953 9.953 0 0 0-.429 1.25 14.517 14.517 0 0 0-.41 1.25c-.165.573-.503 1.538-.992 2.834-.209.554-.696 1.983-.766 2.25a35.545 35.545 0 0 1-.742 2.25c-.219.535-.358.974-.433 1.364-.039.2-.219.713-.402 1.139-.183.426-.332.884-.332 1.017 0 .134-.14.521-.31.861-.171.34-.274.722-.229.848.049.14-.008.199-.148.153-.127-.042-.236-.146-.244-.23a1.973 1.973 0 0 0-.112-.402c-.054-.138-.184-.55-.289-.917a10.062 10.062 0 0 0-.339-1 13.51 13.51 0 0 1-.395-1.167c-.319-1.077-2.235-6.731-2.428-7.166-.13-.293-.719-2.056-.919-2.75a34.83 34.83 0 0 0-.397-1.167 35.102 35.102 0 0 1-.539-1.667 16.634 16.634 0 0 0-.511-1.458l-.295-.708h-3.133l-.258.708c-.142.39-.35 1.008-.461 1.375-.112.367-.248.742-.302.833a1.372 1.372 0 0 0-.135.41c-.02.133-.11.396-.199.583-.189.396-1.195 3.377-1.276 3.783-.031.151-.171.498-.312.77-.14.273-.209.542-.151.6.057.057.029.104-.062.104-.092 0-.173.094-.179.209-.007.114-.091.433-.187.708-.096.275-.369 1.1-.607 1.833-.424 1.307-.641 1.877-.936 2.456-.081.16-.147.428-.147.598 0 .169-.052.36-.116.424s-.355.845-.646 1.736l-.53 1.62-.271-.646c-.148-.355-.27-.705-.27-.779 0-.074-.267-.908-.593-1.855a92.56 92.56 0 0 1-.916-2.804c-.177-.596-.372-1.195-.432-1.333a3.298 3.298 0 0 1-.171-.57 1.387 1.387 0 0 0-.234-.528c-.095-.114-.189-.383-.209-.596-.02-.214-.174-.764-.343-1.223-.317-.864-.433-1.225-.417-1.293.005-.022-.181-.546-.414-1.165-.233-.619-.393-1.125-.357-1.125.037 0-.074-.319-.246-.708-.173-.39-.351-.896-.396-1.125-.045-.229-.25-.904-.455-1.5a29.068 29.068 0 0 1-.423-1.292c-.053-.22-3.399-.315-3.611-.103m103.667 0c-.064.064-.117 5.356-.117 11.759v11.643l6.063-.011c3.334-.007 6.315-.074 6.625-.15a85.57 85.57 0 0 1 1.52-.353c.527-.117.959-.264.959-.327 0-.062.315-.208.701-.324 2.337-.7 5.198-3.625 6.056-6.193.166-.495.31-1.013.321-1.152.012-.139.09-.364.176-.5.24-.385.2-5.235-.047-5.532-.112-.135-.17-.28-.129-.322.247-.247-.737-2.438-1.747-3.888-1.567-2.253-4.73-4.071-7.915-4.55-.867-.131-12.343-.223-12.466-.1m11.447 3.074c.377.098.986.255 1.353.348.926.234 2.583.986 2.583 1.172 0 .084.059.117.131.073.168-.104 2.017 1.769 2.328 2.359 1.158 2.196 1.564 6.298.753 7.595a1.23 1.23 0 0 0-.15.393c-.057.376-1.055 1.995-1.519 2.462-2.339 2.36-4.124 2.862-9.918 2.79l-3.625-.045v-17.326h3.689c2.094 0 3.986.077 4.375.179M184 106.323c-.138.074-.528.184-.869.245-2.339.42-5.798 3.693-5.798 5.487 0 .116-.093.305-.208.42-.149.149-.208.944-.208 2.775s.059 2.626.208 2.775a.798.798 0 0 1 .214.467c.016.733 1.615 3.103 2.494 3.697.321.217.671.476.777.576.22.207 1.726.935 2.473 1.197 2.952 1.032 7.356.302 9.355-1.551.244-.226.49-.411.546-.411.621 0 .423-.678-.488-1.671l-.971-1.059-.544.531c-.299.293-.612.532-.695.532-.083 0-.357.147-.608.325-.251.179-.655.362-.898.406-.243.044-.519.127-.613.186-1.14.705-5.079-.283-6.314-1.583-1.042-1.096-1.686-2.318-1.686-3.197 0-.075 3.225-.137 7.166-.137h7.167l.013-.375c.169-4.823-2.189-8.346-6.346-9.479-.884-.241-3.807-.35-4.167-.156m93 .01c-.138.089-.425.163-.638.164-1.233.009-4.356 2.243-5.129 3.67-.174.32-.366.621-.426.667-.637.486-1.136 4.726-.775 6.583.449 2.314 2.482 4.978 4.468 5.854 2.648 1.169 4.471 1.441 6.752 1.006.644-.123 1.356-.323 1.584-.445.228-.122.433-.208.457-.192.152.108 2.135-1.079 2.63-1.574.6-.6.601-.603.279-.959a22.52 22.52 0 0 1-1.266-1.524c-.241-.328-.251-.327-.724.125-.264.252-.54.459-.612.459-.073 0-.331.138-.574.308-2.321 1.618-7.587.753-8.702-1.429a8.662 8.662 0 0 0-.542-.895c-.168-.237-.329-.612-.357-.833a3.356 3.356 0 0 0-.173-.693c-.114-.275.289-.292 7.123-.292h7.245l-.053-1.251c-.097-2.286-.545-3.915-1.381-5.021a18.156 18.156 0 0 1-.519-.731c-.853-1.282-2.907-2.577-4.417-2.785-.275-.038-.571-.139-.658-.224-.21-.205-3.272-.194-3.592.012m21.917.005c-.184.071-.765.224-1.292.339-.527.115-.958.264-.958.332 0 .067-.169.165-.375.218-.537.138-1.807 1.397-2.272 2.252-.61 1.118-.474 4.521.18 4.521.073 0 .133.084.133.186 0 .882 2.729 2.106 5.408 2.425.362.044.799.155.973.247.173.093.35.133.394.089.355-.355 3.207.891 3.491 1.525.451 1.005-.157 2.136-1.383 2.577-.899.324-4.957.402-5.144.1-.05-.082-.238-.149-.417-.149-.18 0-.475-.075-.657-.167l-.662-.333c-.182-.092-.435-.167-.56-.167-.126 0-.497-.181-.823-.402l-.594-.403-.681 1.342c-.757 1.492-.742 1.591.303 2.09.331.158.64.293.686.299.045.006.369.136.718.288.349.153.799.306 1 .34.201.034.477.105.615.157 2.274.87 7.3.249 9.083-1.122.851-.654 1.308-1.088 1.151-1.094-.083-.003-.027-.099.123-.214.308-.234.613-1.162.749-2.278.228-1.874-1.245-4.044-3.106-4.573-1.526-.435-3.894-.956-4.113-.906-.279.064-2.269-.484-2.927-.807-1.413-.692-1.099-3.55.39-3.55.163 0 .337-.065.386-.144.1-.162 4.373-.141 4.764.023.137.058.4.127.583.155.184.027.371.087.417.133.43.43 1.685.812 1.78.542.057-.161.255-.461.441-.667.185-.207.288-.375.227-.375-.06 0 .069-.318.286-.706l.397-.705-1.024-.436a13.634 13.634 0 0 0-1.94-.641 25.53 25.53 0 0 1-1.448-.365c-.612-.186-3.807-.167-4.302.024m34.666-.01a2.48 2.48 0 0 1-.794.16c-.253.007-.59.079-.75.16-.159.081-.723.354-1.254.606-5.414 2.573-6.011 10.3-1.118 14.474 1.836 1.566 6.664 2.189 9 1.161.137-.061.287-.121.333-.135.561-.165 1.373-.659 1.887-1.148.851-.81.845-.817.723.852-.202 2.76-.664 3.677-2.318 4.596-1.604.891-5.035 1.046-6.959.315a2.457 2.457 0 0 0-.5-.125c-.316-.037-2.064-.952-2.139-1.119-.03-.069-.161-.125-.291-.125-.13 0-.236-.075-.236-.167 0-.628-.586.03-1.593 1.788-.326.57.091 1.379.712 1.379.125 0 .432.151.681.335.249.185.603.369.785.409.182.04.856.253 1.498.473 1.253.43 4.502.881 5.158.717.481-.121 1.744-.303 2.092-.301.648.002 2.864-.94 3.634-1.545 1.365-1.073 2.267-2.647 2.676-4.671.037-.184.099-4.327.138-9.209l.07-8.875H341.847l-.048 1.238-.049 1.238-.75-.667c-1.687-1.5-5.841-2.516-7.417-1.814m28.417.005c-.137.089-.42.163-.627.164-.587.004-2.311.892-3.037 1.564-.851.787-.836.797-.836-.561v-1.167h-3.167v17.834h3.303l.06-5.542.06-5.542.468-.958c.257-.527.536-.958.621-.958.085 0 .155-.075.155-.167 0-.239.512-.709 1.088-1 .273-.137.55-.325.618-.416.067-.092.123-.113.125-.046.001.066.209.039.461-.06.995-.391 3.683-.19 4.559.342 1.745 1.059 1.892 1.7 1.947 8.472l.047 5.875h3.322v-6.223c0-3.422-.052-6.274-.116-6.337-.063-.064-.139-.282-.168-.486-.156-1.098-1.027-2.479-2.216-3.515-1.217-1.06-5.679-1.911-6.667-1.273m21.864.003a4.811 4.811 0 0 1-.83.242c-3.024.548-4.762 3.258-4.172 6.505.168.931 1.782 2.584 2.522 2.584.155 0 .283.066.283.147 0 .082.206.187.458.235.252.048.908.2 1.458.337.55.137 1.3.299 1.667.36 1.761.291 2.227.393 3 .658 2.121.728 2.121 2.792 0 3.675-1.782.743-6.119.108-8.185-1.198-.355-.224-.969-.13-.811.125.046.076.013.182-.074.236-.17.105-1.013 1.808-1.013 2.047 0 .781 5.851 2.379 7.892 2.155 2.3-.253 2.703-.318 2.849-.459.087-.083.284-.152.438-.152.153 0 .644-.201 1.091-.446.846-.465 1.685-1.054 1.502-1.054-.058 0 .049-.154.238-.343 1.454-1.455 1.258-4.83-.361-6.216-.596-.51-2.934-1.476-3.756-1.552a8.506 8.506 0 0 1-1.05-.219c-.381-.103-.833-.142-1.004-.088-.171.054-.36.021-.418-.075-.059-.095-.319-.173-.577-.173-.259 0-.761-.127-1.116-.282-.355-.155-.684-.286-.732-.292-1.161-.134-1.476-2.524-.409-3.095.227-.122.413-.283.413-.359 0-.077.145-.139.323-.139.178 0 .364-.065.413-.145.115-.185 4.583-.18 4.697.006.048.076.224.139.393.139s.737.227 1.264.504.97.483.984.458l.347-.545c.176-.275.322-.544.324-.597.003-.053.154-.373.336-.711.324-.603.236-1.181-.183-1.199-.082-.003-.411-.128-.732-.277-.321-.149-.958-.354-1.416-.456a57.965 57.965 0 0 1-1.25-.291c-.716-.181-4.397-.22-4.803-.05m-68.531 8.914v8.917h3.334v-17.834h-3.334v8.917m-128.166-6.02c.608.088 1.015.269 1.625.72.298.22.541.362.541.314 0-.047.174.081.386.284.212.203.358.425.324.494-.035.068.012.125.103.125s.261.262.377.583c.116.321.261.583.323.583s.154.207.205.459c.051.252.143.589.205.75.106.274-.222.291-5.491.291h-5.605l.099-.458c.148-.688.606-1.708.766-1.708.078 0 .123-.066.1-.146-.062-.218 1.146-1.479 1.536-1.603.187-.059.339-.174.339-.255 0-.081.281-.193.625-.248.344-.055.737-.161.875-.236.229-.125 1.649-.098 2.667.051m92.946.033c.624.145 1.217.331 1.318.415.1.084.215.121.254.082.276-.277 2.315 2.264 2.315 2.885 0 .185.075.382.167.438.091.057.166.249.166.427 0 .314-.167.323-5.589.323h-5.589l.186-.347c.102-.191.149-.385.103-.431-.546-.546 3.023-4.237 3.696-3.821.065.04.379.011.697-.064.859-.202 1.037-.194 2.276.093m-67.113.064c0 .055.338.2.75.322.412.121.75.288.75.369 0 .082.087.149.193.149.242 0 1.61 1.476 1.736 1.872.051.162.154.294.228.294.222 0 .728 2.749.617 3.355l-.176.979c-.04.229-.149.615-.242.858-.092.242-.123.486-.068.541.056.055.013.101-.094.101-.106 0-.194.12-.194.267 0 .503-1.908 2.174-2.91 2.549-1.86.696-4.268.398-5.654-.701-.37-.292-.694-.513-.721-.49-.027.023-.042-.007-.034-.065.008-.059-.052-.152-.133-.208-1.692-1.172-2.007-6.148-.499-7.884.214-.247.535-.643.712-.882.357-.479 1.203-1.029 2.024-1.316.554-.193 3.715-.287 3.715-.11m124.75.088c1.111.311 3.083 1.826 3.083 2.37 0 .118.065.215.144.215.537 0 .834 2.993.455 4.58-.258 1.078-1.362 2.466-2.392 3.007-.343.179-.678.402-.746.495-.067.092-.123.114-.125.047-.001-.066-.209-.042-.461.054-2.499.954-6.316-.492-7.384-2.798-1.072-2.316-.722-4.746.928-6.444 1.459-1.501 4.246-2.156 6.498-1.526" fill="#041c3c"/><path d="M271.58 64.167c0 10.129.02 14.273.045 9.208.024-5.065.024-13.352 0-18.417-.025-5.064-.045-.92-.045 9.209m35.668 3.583c0 12.008.019 16.896.044 10.862.024-6.034.024-15.859 0-21.833-.025-5.974-.044-1.037-.044 10.971M153.964 90.123c.484.034 1.234.033 1.667-.001.432-.034.036-.062-.881-.061-.917 0-1.27.028-.786.062m90.614 22.21c0 4.813.021 6.782.047 4.375.026-2.406.026-6.343 0-8.75-.026-2.406-.047-.437-.047 4.375m100.499 1.834c0 4.354.022 6.135.048 3.958.026-2.177.026-5.74 0-7.917-.026-2.177-.048-.395-.048 3.959m-18.872.666c0 .321.035.452.077.292.041-.16.041-.423 0-.583-.042-.161-.077-.029-.077.291" fill="#042444"/><path d="M176.721 115.25c.001.642.031.884.067.538a6.222 6.222 0 0 0-.001-1.167c-.037-.296-.066-.013-.066.629m40.493 0c.002.458.034.626.072.373a2.94 2.94 0 0 0-.002-.834c-.04-.205-.071.003-.07.461" fill="#041c44"/></g></svg>